<?xml version="1.0" encoding="iso-8859-1"?>
<!-- Generator: Adobe Illustrator 18.0.0, SVG Export Plug-In . SVG Version: 6.00 Build 0)  -->
<!DOCTYPE svg PUBLIC "-//W3C//DTD SVG 1.1//EN" "http://www.w3.org/Graphics/SVG/1.1/DTD/svg11.dtd">
<svg version="1.1" id="Capa_1" xmlns="http://www.w3.org/2000/svg" xmlns:xlink="http://www.w3.org/1999/xlink" x="0px" y="0px"
	 viewBox="0 0 450.49 450.49" style="enable-background:new 0 0 450.49 450.49;" xml:space="preserve">
<g>
	<path d="M289.727,78.612c-28.195-28.195-65.683-43.723-105.558-43.723c-39.874,0-77.362,15.528-105.558,43.723
		c-58.205,58.205-58.205,152.911,0,211.116c29.103,29.102,67.33,43.653,105.558,43.653s76.455-14.551,105.558-43.653
		C347.932,231.522,347.932,136.817,289.727,78.612z M275.585,275.585c-50.406,50.407-132.424,50.407-182.83,0
		c-50.407-50.406-50.407-132.424,0-182.831c24.418-24.418,56.883-37.866,91.415-37.866s66.998,13.448,91.415,37.865v0
		C325.992,143.161,325.992,225.179,275.585,275.585z"/>
	<path d="M436.773,377.386l-99.52-90.733c20.219-30.067,31.086-65.438,31.086-102.482c0-49.194-19.157-95.443-53.942-130.228
		C279.613,19.157,233.364,0,184.17,0C134.976,0,88.727,19.157,53.943,53.942C19.158,88.727,0,134.976,0,184.17
		c0,49.193,19.157,95.442,53.942,130.227c34.785,34.785,81.034,53.942,130.227,53.942c37.044,0,72.415-10.867,102.482-31.086
		l90.734,99.52c7.813,8.57,18.501,13.437,30.095,13.705c0.336,0.008,0.669,0.012,1.004,0.012c11.217,0,21.729-4.351,29.691-12.313
		c8.2-8.2,12.569-19.102,12.301-30.695S445.344,385.199,436.773,377.386z M68.084,300.255C37.077,269.248,20,228.021,20,184.17
		c0-43.852,17.077-85.078,48.084-116.085C99.092,37.077,140.319,20,184.17,20c43.852,0,85.078,17.077,116.085,48.084
		c31.008,31.007,48.084,72.234,48.084,116.085c0,43.851-17.077,85.078-48.084,116.085c-31.007,31.007-72.234,48.084-116.085,48.084
		C140.319,348.339,99.092,331.263,68.084,300.255z M314.398,314.397c3.772-3.772,7.349-7.687,10.749-11.718l7.622,6.949
		l-23.141,23.141l-6.949-7.622C306.71,321.747,310.625,318.17,314.398,314.397z M424.034,424.034
		c-4.299,4.299-10.013,6.59-16.092,6.449c-6.078-0.14-11.681-2.692-15.777-7.185l-69.048-75.734l24.447-24.448l75.734,69.048
		c4.493,4.096,7.044,9.7,7.185,15.778S428.333,419.735,424.034,424.034z"/>
	<path d="M218.545,170.189c-14.818,0-26.874,12.056-26.874,26.874c0,14.819,12.056,26.875,26.874,26.875
		c14.819,0,26.875-12.056,26.875-26.875C245.419,182.245,233.364,170.189,218.545,170.189z M218.545,203.938
		c-3.791,0-6.874-3.084-6.874-6.875s3.083-6.874,6.874-6.874s6.875,3.083,6.875,6.874S222.335,203.938,218.545,203.938z"/>
	<path d="M294.098,176.251c-1.243-5.381-6.611-8.736-11.994-7.493l-6.667,1.54c-1.363-3.012-2.818-5.854-4.289-8.487
		c-1.75-3.132-3.558-5.981-5.413-8.58l2.61-2.975c3.643-4.151,3.231-10.469-0.92-14.112s-10.469-3.231-14.112,0.92l-1.434,1.634
		c-7.959-6.041-16.314-9.101-24.511-10.738l0.447-1.941c1.239-5.382-2.12-10.75-7.502-11.988c-5.384-1.239-10.75,2.12-11.988,7.502
		l-1.012,4.395c-0.452-0.02-0.905-0.04-1.353-0.059c-8.329-0.36-15.836-0.697-22.123-3.115l1.535-2.899
		c2.584-4.881,0.722-10.933-4.16-13.516c-4.881-2.585-10.933-0.721-13.516,4.16l-1.109,2.096c-5.598-2.231-11.632-3.09-17.615-2.494
		l-0.568-1.945c-1.548-5.301-7.1-8.346-12.402-6.796c-5.302,1.548-8.344,7.101-6.796,12.402l1.05,3.595
		c-6.352,4.74-10.896,11.363-13.053,19.085h-0.839c-5.523,0-10,4.477-10,10s4.477,10,10,10h0.149
		c2.237,10.43,8.76,16.469,15.575,20.722l-0.552,0.921c-2.84,4.737-1.302,10.879,3.435,13.719c1.61,0.965,3.382,1.425,5.133,1.425
		c3.398,0,6.711-1.733,8.586-4.859l0.88-1.467c5.229,3.742,8.356,8.621,8.356,18.599c0,4.74,0.313,9.108,0.87,13.146l-4.491,2.423
		c-4.861,2.623-6.675,8.688-4.053,13.549c1.808,3.351,5.251,5.254,8.81,5.254c1.603,0,3.229-0.387,4.739-1.201l0.543-0.293
		c4.04,8.85,9.393,14.906,14.265,18.95c0.128,0.106,0.261,0.205,0.391,0.31l-3.648,6.324c-2.76,4.784-1.119,10.899,3.666,13.659
		c1.574,0.908,3.292,1.339,4.987,1.339c3.457,0,6.82-1.795,8.671-5.005l4.128-7.157c4.516,1.249,9.263,1.894,14.165,1.894
		c3.632,0,7.348-0.349,11.11-1.054c0.763-0.143,1.541-0.307,2.326-0.481l1.209,6.097c0.944,4.76,5.123,8.056,9.798,8.056
		c0.645,0,1.3-0.063,1.957-0.193c5.417-1.075,8.938-6.337,7.863-11.755l-1.769-8.919c13.595-6.622,26.992-17.424,34.31-33.052
		c6.058-12.938,6.384-26.068,3.959-38.022l4.877-1.126C291.986,187.002,295.341,181.632,294.098,176.251z M259.657,218.912
		c-7.524,16.067-26.666,26.332-41.268,29.07c-10.38,1.945-19.971-0.201-27.012-6.043c-8.802-7.305-13.455-19.906-13.455-36.438
		c0-27.186-17.132-35.874-28.469-41.623c-10.563-5.356-14.191-7.68-13.729-16.938c0.032-0.649,0.078-1.285,0.135-1.906
		c0.589-6.36,4.294-11.394,10.167-13.811c2.191-0.902,4.461-1.345,6.71-1.345c4.064,0,8.061,1.447,11.401,4.247
		c12.528,10.499,27.632,11.151,40.958,11.728c18.817,0.813,35.068,1.516,48.592,25.717
		C263.847,189.746,265.855,205.675,259.657,218.912z"/>
	<circle cx="110.958" cy="231.313" r="13.499"/>
	<circle cx="215.358" cy="85.881" r="13.499"/>
</g>
<g>
</g>
<g>
</g>
<g>
</g>
<g>
</g>
<g>
</g>
<g>
</g>
<g>
</g>
<g>
</g>
<g>
</g>
<g>
</g>
<g>
</g>
<g>
</g>
<g>
</g>
<g>
</g>
<g>
</g>
</svg>
