<?xml version="1.0" encoding="iso-8859-1"?>
<!-- Generator: Adobe Illustrator 19.0.0, SVG Export Plug-In . SVG Version: 6.00 Build 0)  -->
<svg version="1.1" id="Layer_1" xmlns="http://www.w3.org/2000/svg" xmlns:xlink="http://www.w3.org/1999/xlink" x="0px" y="0px"
	 viewBox="0 0 512 512" style="enable-background:new 0 0 512 512;" xml:space="preserve">
<path style="fill:#4BBCD6;" d="M50.691,437.439L4.944,483.186c-6.592,6.592-6.592,17.278,0,23.869
	c6.592,6.592,17.278,6.592,23.869,0l45.747-45.747L50.691,437.439z"/>
<path style="fill:#B7E8D9;" d="M430.116,81.885c-16.479-16.479-43.195-16.479-59.674,0L52.18,400.146
	c-16.479,16.479-16.479,43.195,0,59.674s43.195,16.479,59.674,0l318.262-318.262C446.595,125.08,446.595,98.363,430.116,81.885z"/>
<path style="fill:#F23E6D;" d="M71.302,440.699c-3.296-3.296-3.296-8.639,0-11.935l323.009-323.009
	c3.296-3.296,8.638-3.296,11.935,0c3.296,3.296,3.296,8.639,0,11.935L83.237,440.699C79.941,443.995,74.597,443.995,71.302,440.699z
	"/>
<g>
	<path style="fill:#4BBCD6;" d="M82.017,386.222l-7.956-7.956l-11.935,11.935l7.956,7.956c3.296,3.296,8.639,3.296,11.935,0
		C85.313,394.862,85.313,389.518,82.017,386.222z"/>
	<path style="fill:#4BBCD6;" d="M117.822,350.418l-7.956-7.956L97.93,354.396l7.956,7.956c3.296,3.296,8.639,3.296,11.935,0
		S121.118,353.713,117.822,350.418z"/>
	<path style="fill:#4BBCD6;" d="M153.626,314.613l-7.956-7.956l-11.935,11.935l7.956,7.956c3.296,3.296,8.639,3.296,11.935,0
		C156.921,323.253,156.922,317.91,153.626,314.613z"/>
	<path style="fill:#4BBCD6;" d="M189.43,278.809l-7.956-7.956l-11.935,11.935l7.956,7.956c3.296,3.296,8.639,3.296,11.935,0
		C192.726,287.448,192.727,282.105,189.43,278.809z"/>
	<path style="fill:#4BBCD6;" d="M225.235,243.005l-7.956-7.956l-11.935,11.935l7.956,7.956c3.296,3.296,8.639,3.296,11.935,0
		C228.53,251.643,228.53,246.301,225.235,243.005z"/>
	<path style="fill:#4BBCD6;" d="M261.039,207.2l-7.956-7.956l-11.935,11.935l7.956,7.956c3.296,3.296,8.639,3.296,11.935,0
		S264.335,210.496,261.039,207.2z"/>
	<path style="fill:#4BBCD6;" d="M296.844,183.331c3.296-3.296,3.296-8.638,0-11.935l-7.956-7.956l-11.935,11.935l7.956,7.956
		C288.205,186.626,293.548,186.626,296.844,183.331z"/>
</g>
<path style="fill:#FFD15D;" d="M489.79,22.211c-29.614-29.614-77.799-29.614-107.413,0l-87.522,87.522l107.413,107.413
	l87.522-87.522C519.403,100.01,519.403,51.824,489.79,22.211z M465.92,105.754l-47.739,47.739l-59.674-59.674l47.74-47.74
	c16.479-16.479,43.195-16.479,59.674,0C482.399,62.559,482.399,89.275,465.92,105.754z"/>
<g>
</g>
<g>
</g>
<g>
</g>
<g>
</g>
<g>
</g>
<g>
</g>
<g>
</g>
<g>
</g>
<g>
</g>
<g>
</g>
<g>
</g>
<g>
</g>
<g>
</g>
<g>
</g>
<g>
</g>
</svg>
